<svg xmlns="http://www.w3.org/2000/svg" version="1.1" xmlns:xlink="http://www.w3.org/1999/xlink" width="1000" height="1000"><g clip-path="url(#SvgjsClipPath1136)"><rect width="1000" height="1000" fill="#ffc770"></rect><g transform="matrix(1.7578125,0,0,1.7578125,50,78.125)"><svg xmlns="http://www.w3.org/2000/svg" version="1.1" xmlns:xlink="http://www.w3.org/1999/xlink" width="512" height="480"><svg width="512" height="480" viewBox="0 0 512 480" fill="none" xmlns="http://www.w3.org/2000/svg">
<rect width="512" height="480" fill="#FFC770"></rect>
<path d="M142.375 404.861H56.3594C55.1094 404.861 54.4844 404.08 54.4844 402.518L55.4219 72.752C55.4219 71.502 56.0469 70.877 57.2969 70.877H149.641C167.609 70.877 183.938 75.252 198.625 84.002C213 92.752 224.328 104.393 232.609 118.924C240.891 133.299 245.031 148.924 245.031 165.799C245.031 179.549 241.906 192.361 235.656 204.236C229.406 216.111 221.984 225.721 213.391 233.064C222.609 242.283 229.797 252.986 234.953 265.174C240.109 277.361 242.688 290.174 242.688 303.611C242.688 322.205 238.234 339.158 229.328 354.471C220.266 369.783 208.156 382.049 193 391.268C177.844 400.33 160.969 404.861 142.375 404.861ZM149.641 127.83H113.078V203.299H149.641C160.734 203.299 169.719 199.393 176.594 191.58C183.469 183.611 186.906 175.018 186.906 165.799C186.906 155.643 183.234 146.814 175.891 139.314C168.547 131.658 159.797 127.83 149.641 127.83ZM142.375 261.424H113.078L112.609 346.268H142.375C153.938 346.268 163.859 342.049 172.141 333.611C180.422 325.174 184.562 315.174 184.562 303.611C184.562 292.049 180.422 282.127 172.141 273.846C163.859 265.564 153.938 261.424 142.375 261.424ZM365.5 409.549C348.156 409.549 332.297 405.174 317.922 396.424C303.703 387.674 292.375 375.955 283.938 361.268C275.656 346.424 271.516 329.939 271.516 311.814L271.984 162.049C271.984 144.236 276.047 128.143 284.172 113.768C292.297 99.2363 303.469 87.5957 317.688 78.8457C332.062 69.9395 348 65.4863 365.5 65.4863C383.312 65.4863 399.172 69.7832 413.078 78.377C427.141 86.9707 438.312 98.6113 446.594 113.299C455.031 127.83 459.25 144.08 459.25 162.049V184.08C459.25 185.33 458.625 185.955 457.375 185.955H403.469C402.219 185.955 401.594 185.33 401.594 184.08V162.049C401.594 151.424 398.156 142.283 391.281 134.627C384.406 126.971 375.812 123.143 365.5 123.143C354.094 123.143 345.344 127.049 339.25 134.861C333.156 142.674 330.109 151.736 330.109 162.049V311.814C330.109 323.533 333.547 333.143 340.422 340.643C347.297 347.986 355.656 351.658 365.5 351.658C375.812 351.658 384.406 347.596 391.281 339.471C398.156 331.189 401.594 321.971 401.594 311.814V289.549C401.594 288.299 402.219 287.674 403.469 287.674H457.844C459.094 287.674 459.719 288.299 459.719 289.549V311.814C459.719 329.783 455.5 346.189 447.062 361.033C438.469 375.721 427.141 387.518 413.078 396.424C399.016 405.174 383.156 409.549 365.5 409.549Z" fill="black"></path>
</svg></svg></g></g><defs><clipPath id="SvgjsClipPath1136"><rect width="1000" height="1000" x="0" y="0" rx="0" ry="0"></rect></clipPath></defs></svg>